<svg width="1100" height="245" viewBox="0 0 1100 245" fill="none" xmlns="http://www.w3.org/2000/svg">
<g clip-path="url(#clip0_24_3)">
<g filter="url(#filter0_d_24_3)">
<path d="M2 61.5C2 61.5 79.625 61.5 139.5 61.5C199.375 61.5 226.5 102.25 275 122.5C323.5 142.75 376.625 83.313 411.5 94C446.375 104.688 477 185.5 550 185.5C623 185.5 657 134 696.5 88C736 42 781 28 815 45.5C849 63 880.75 123.438 955 122.5C1029.25 121.563 1098 122.5 1098 122.5" stroke="black" stroke-width="4" stroke-linecap="round" stroke-linejoin="round"/>
</g>
<path d="M2 61.5C2 61.5 79.625 61.5 139.5 61.5C199.375 61.5 226.5 102.25 275 122.5C323.5 142.75 376.625 83.313 411.5 94C446.375 104.688 477 185.5 550 185.5C623 185.5 657 134 696.5 88C736 42 781 28 815 45.5C849 63 880.75 123.438 955 122.5C1029.25 121.563 1098 122.5 1098 122.5" stroke="#7855FF" stroke-width="4" stroke-linecap="round" stroke-linejoin="round"/>
</g>
<defs>
<filter id="filter0_d_24_3" x="-10" y="26.2083" width="1120" height="171.292" filterUnits="userSpaceOnUse" color-interpolation-filters="sRGB">
<feFlood flood-opacity="0" result="BackgroundImageFix"/>
<feColorMatrix in="SourceAlpha" type="matrix" values="0 0 0 0 0 0 0 0 0 0 0 0 0 0 0 0 0 0 127 0" result="hardAlpha"/>
<feOffset/>
<feGaussianBlur stdDeviation="5"/>
<feColorMatrix type="matrix" values="0 0 0 0 0 0 0 0 0 0 0 0 0 0 0 0 0 0 0.1 0"/>
<feBlend mode="normal" in2="BackgroundImageFix" result="effect1_dropShadow_24_3"/>
<feBlend mode="normal" in="SourceGraphic" in2="effect1_dropShadow_24_3" result="shape"/>
</filter>
<clipPath id="clip0_24_3">
<rect width="1100" height="245" fill="white"/>
</clipPath>
</defs>
</svg>
